<svg width="207" height="280" viewBox="0 0 207 280" fill="none" xmlns="http://www.w3.org/2000/svg">
<g style="mix-blend-mode:difference">
<path d="M14.837 185.551C18.5046 162.204 38.6216 145 62.2555 145H144.422C167.995 145 188.079 162.118 191.815 185.393L198.075 224.393C202.757 253.564 180.226 280 150.681 280H56.1289C26.649 280 4.13558 253.674 8.71047 224.551L14.837 185.551Z" fill="#ACA8A8"/>
<path d="M53.2283 61.3351C54.5508 60.1766 55.9416 61.2522 59.4357 64.4998L59.9302 80.6969C59.495 81.2692 58.3567 82.5338 57.285 83.0138C56.2133 83.4937 54.5091 81.0487 53.791 79.7662L53.6204 74.181C53.5863 73.064 52.0762 68.0787 51.3296 65.8654C50.5831 63.652 51.9057 62.4935 53.2283 61.3351Z" fill="#CE9991" stroke="#BB9379"/>
<path d="M152.814 61.467C151.491 60.3893 150.236 61.5457 147.115 64.9952L147.61 81.1923C148.056 81.7377 149.211 82.9323 150.256 83.3476C151.301 83.763 152.772 81.221 153.377 79.8981L153.206 74.3129C153.172 73.1959 154.308 68.1299 154.884 65.8761C155.46 63.6223 154.137 62.5447 152.814 61.467Z" fill="#CE9991" stroke="#BB9379"/>
<rect x="84.5" y="109.484" width="39" height="33" fill="#CE9991" stroke="#8A554D"/>
<path d="M118.643 142.484L103.5 168.004L88.3566 142.484H118.643Z" fill="#CE9991" stroke="#CE9991"/>
<path d="M149.5 66.9838C149.5 98.849 128.808 124.484 103.5 124.484C78.1924 124.484 57.5 98.849 57.5 66.9838C57.5 35.1187 78.1924 9.48383 103.5 9.48383C128.808 9.48383 149.5 35.1187 149.5 66.9838Z" fill="#CE9991" stroke="#8A554D"/>
<path d="M147.5 74.4838C148.5 69.9838 147.5 59.9838 149.5 57.4838L153 54.9838C153.167 54.1505 153.4 51.3838 153 46.9838C152.5 41.4838 149.5 42.4838 149.5 35.4838C149.5 28.4838 142.5 24.9838 144.5 20.4838C146.5 15.9838 130 14.9838 130 9.48382C130 3.98382 111.5 -0.516178 107 1.48382C103.4 3.08382 93.5 2.15049 89 1.48382C85.8334 2.98382 78.6 6.08382 75 6.48382C70.5 6.98382 72 14.9838 69.5 14.9838C67.5 14.9838 68.6667 11.3172 69.5 9.48382C68 9.81715 65 11.3838 65 14.9838C65 19.4838 65 18.9838 60.5 22.4838C56 25.9838 60.5 30.9838 60.5 33.4838C60.5 35.4838 58.1667 40.3172 57.0001 42.4838C55.5001 43.9838 53.0001 47.3838 55.0001 48.9838C57.0001 50.5838 57.1667 57.3172 57.0001 60.4838L60.5 74.4838C60 72.4838 59.3 67.2838 60.5 62.4838C61.7 57.6838 64 55.4838 65 54.9838C65.8334 52.9838 68.4 48.5838 72 46.9838C75.6 45.3838 75.5 39.9838 75 37.4838C76 35.3172 79 30.9838 83 30.9838H109.5C116 30.9838 125.5 32.9838 127.5 33.4838C129.1 33.8838 131.5 39.6505 132.5 42.4838L142.5 48.9838L145.5 53.9838C146 59.1505 146.7 78.0838 147.5 74.4838Z" fill="#0A0A0A" stroke="black"/>
<rect x="72.0679" y="130.024" width="34.4262" height="11.6394" transform="rotate(34.1975 72.0679 130.024)" fill="#060531"/>
<rect x="138.914" y="139.559" width="34.4262" height="11.6394" transform="rotate(145.212 138.914 139.559)" fill="#060531"/>
<line x1="70.2906" y1="132.593" x2="98.2906" y2="152.593" stroke="white"/>
<line x1="134.555" y1="133.411" x2="106.285" y2="153.028" stroke="white"/>
<rect x="34.4944" y="272.214" width="140.157" height="7.78652" fill="#444444"/>
<path d="M17.809 181H188L173.919 277.775H35.5627L17.809 181Z" fill="#D9D9D9"/>
<path d="M70.1295 62.152C69.1434 62.3935 65.2332 63.3931 63.4014 63.8626C63.2987 64.2148 63.3434 64.3658 63.2473 65.2714C62.8364 69.1455 62.6824 66.0261 64.8908 67.9883C67.0993 69.9505 67.0479 71.4095 67.7156 74.6798C68.3833 77.9501 69.2564 79.2583 69.9754 80.4658C70.6944 81.6733 74.0842 83.3839 80.6582 83.6858C87.073 83.9803 88.1567 83.3839 89.9029 82.6292C91.1525 82.0891 92.2655 81.1366 92.625 80.6167L93.68 79L94.9875 76.1389L96.3229 72.0636C96.8 70.5 97.2474 68.4411 98.0691 67.4348C98.6821 66.6842 99.764 65.9255 101.716 65.9255C103.462 65.9255 105.361 66.6919 105.978 68.2398C106.68 70 106.975 71 107.776 73.0195C108.76 75.5 108.71 76.1389 110.139 78.6042C111.217 80.4658 113.963 82.8305 116.994 83.4342C120.024 84.038 122.532 84.038 127 83.4342C131.468 82.8305 133.5 81.5 135 79.5C135.883 78.3232 136.863 73.422 137.102 70.353C137.085 70.2356 137.164 69.9706 137.616 69.8498C138.181 69.6989 137.924 69.4976 138.335 68.4411C138.664 67.5958 139.191 67.6529 139.414 67.787C139.927 67.8709 140.954 67.9883 140.954 67.787C140.954 67.5355 141.057 64.7683 140.954 64.4664C140.872 64.2249 140.27 64.1645 139.979 64.1645C138.78 63.9633 135.921 63.3796 134.072 62.6551C131.761 61.7495 126.111 61.1961 121.9 61.347C118.531 61.4678 111.423 62.8061 108.29 63.4601C107.211 63.762 104.16 64.3255 100.586 64.1645C96.1174 63.9633 97.0419 63.5105 90.0056 62.152C82.9694 60.7936 78.912 60.9445 76.7035 61.0955C74.4951 61.2464 71.3621 61.8501 70.1295 62.152Z" fill="#594641"/>
<path d="M149 60L141 64.0833V67L148.467 62.9167L149 60Z" fill="#594641"/>
<path d="M56 60.5L63.5 64L63 67L56 63V60.5Z" fill="#594641"/>
<path d="M69.0199 68.0456C69.2457 70.7376 69.6972 72.9 70.3745 75.8127C70.9046 78.0924 71.5485 78.9461 72.1355 79.5639L72.7677 80.0494C72.9483 80.1818 73.3214 80.4384 74.3481 80.7996C75.4769 81.1968 76.4252 81.4174 78.9538 81.7705C82.2359 82.2288 85.5312 81.9029 86.8557 81.6381C88.1802 81.3733 91.0099 80.5525 92.6354 76.563C94.6673 71.5761 94.8028 69.5019 94.9834 67.6043C95.164 65.7066 93.8546 65.3094 91.7323 64.515C89.6101 63.7207 84.1465 63.1911 79.9472 63.0146C76.4252 62.8665 72.4667 63.8825 70.8261 64.4268C69.923 64.7798 68.8393 65.892 69.0199 68.0456Z" fill="#D4B3AE" stroke="#D5B3AE"/>
<path d="M135.5 68C135.5 70.7022 135.276 72.9 134.573 75.8127C134.022 78.0924 133.353 78.9461 132.744 79.5639L132.087 80.0494C131.9 80.1818 131.512 80.4384 130.446 80.7996C129.274 81.1968 128.289 81.4174 125.663 81.7705C122.255 82.2288 118.833 81.9029 117.458 81.6381C116.082 81.3733 113.144 80.5525 111.456 76.563C109.345 71.5761 109.205 69.5019 109.017 67.6043C108.83 65.7066 110.189 65.3094 112.393 64.515C114.597 63.7207 120.271 63.1911 124.632 63.0146C128.289 62.8665 132.4 63.8825 134.104 64.4268C135.042 64.7798 135.5 65.4544 135.5 68Z" fill="#D4B3AE" stroke="#D5B3AE"/>
</g>
</svg>
