<svg width="1142" height="512" viewBox="0 0 1142 512" fill="none" xmlns="http://www.w3.org/2000/svg">
<rect x="331.548" y="-3.05176e-05" width="208.753" height="56.218" fill="#D9D9D9" fill-opacity="0.1"/>
<rect x="208.753" y="56.218" width="122.796" height="44.9744" fill="#D9D9D9" fill-opacity="0.1"/>
<rect x="209" y="399" width="122.796" height="44.9744" fill="#D9D9D9" fill-opacity="0.1"/>
<rect x="368.387" y="146.167" width="122.796" height="44.9744" fill="#D9D9D9" fill-opacity="0.1"/>
<rect x="122.796" y="208.007" width="122.796" height="44.9744" fill="#D9D9D9" fill-opacity="0.1"/>
<rect y="123.68" width="122.796" height="44.9744" fill="#D9D9D9" fill-opacity="0.1"/>
<rect y="-3.05176e-05" width="122.796" height="44.9744" fill="#D9D9D9" fill-opacity="0.1"/>
<rect x="976.783" y="94.0372" width="52.1294" height="66.9795" transform="rotate(90 976.783 94.0372)" fill="#D9D9D9" fill-opacity="0.1"/>
<rect x="909.805" y="63.373" width="30.6644" height="53.5836" transform="rotate(90 909.805 63.373)" fill="#D9D9D9" fill-opacity="0.1"/>
<rect x="802.637" y="103.237" width="30.6644" height="53.5836" transform="rotate(90 802.637 103.237)" fill="#D9D9D9" fill-opacity="0.1"/>
<rect x="728.96" y="41.908" width="30.6644" height="53.5836" transform="rotate(90 728.96 41.908)" fill="#D9D9D9" fill-opacity="0.1"/>
<rect x="829.429" y="11.2435" width="30.6644" height="53.5836" transform="rotate(90 829.429 11.2435)" fill="#D9D9D9" fill-opacity="0.1"/>
<rect x="976.783" y="11.2435" width="30.6644" height="53.5836" transform="rotate(90 976.783 11.2435)" fill="#D9D9D9" fill-opacity="0.1"/>
<rect x="675.376" y="320.443" width="245.591" height="67.4616" transform="rotate(180 675.376 320.443)" fill="#D9D9D9" fill-opacity="0.1"/>
<rect x="749.054" y="399.148" width="135.075" height="50.5962" transform="rotate(180 749.054 399.148)" fill="#D9D9D9" fill-opacity="0.1"/>
<rect x="982.366" y="314.821" width="147.355" height="56.218" transform="rotate(180 982.366 314.821)" fill="#D9D9D9" fill-opacity="0.1"/>
<rect x="1142" y="444.122" width="147.355" height="50.5962" transform="rotate(180 1142 444.122)" fill="#D9D9D9" fill-opacity="0.1"/>
<rect x="933.247" y="511.584" width="147.355" height="50.5962" transform="rotate(180 933.247 511.584)" fill="#D9D9D9" fill-opacity="0.1"/>
<rect x="613.979" y="511.584" width="147.355" height="50.5962" transform="rotate(180 613.979 511.584)" fill="#D9D9D9" fill-opacity="0.1"/>
</svg>
